<?xml version="1.0" standalone="no"?><!DOCTYPE svg PUBLIC "-//W3C//DTD SVG 1.1//EN" "http://www.w3.org/Graphics/SVG/1.1/DTD/svg11.dtd"><svg t="1742966659451" class="icon" viewBox="0 0 1024 1024" version="1.1" xmlns="http://www.w3.org/2000/svg" p-id="5343" xmlns:xlink="http://www.w3.org/1999/xlink" width="200" height="200"><path d="M568.64 93.76V0h-117.12v96a204.8 204.8 0 0 0-144.64 197.12v523.84a205.12 205.12 0 1 0 410.24 0V293.12a208 208 0 0 0-148.48-199.36zM486.72 32h47.04v52.16h-47.04z m164.16 668.48h-277.76v-309.76h279.68v308.8z m0 117.12a138.88 138.88 0 1 1-277.44 0v-67.2h279.36v66.56z m-277.44-476.8V293.12a138.88 138.88 0 1 1 277.44 0v47.04z m0 0" p-id="5344"></path></svg>