<?xml version="1.0" standalone="no"?><!DOCTYPE svg PUBLIC "-//W3C//DTD SVG 1.1//EN" "http://www.w3.org/Graphics/SVG/1.1/DTD/svg11.dtd"><svg t="1699924275703" class="icon" viewBox="0 0 1024 1024" version="1.1" xmlns="http://www.w3.org/2000/svg" p-id="4192" xmlns:xlink="http://www.w3.org/1999/xlink" width="200" height="200"><path d="M451.418503 905.130052H92.026665c-48.764157 0-56.566422-109.231712-22.919154-146.292471L469.948883 26.887581a81.436143 81.436143 0 0 1 120.93511 0l264.301732 482.277515-403.767222 395.964956z m138.002565-613.453097a48.764157 48.764157 0 1 0-97.528314 0v239.432011a48.764157 48.764157 0 1 0 97.528314 0V291.676955z m-48.764157 359.87948a51.690007 51.690007 0 1 0 48.764157 51.202365 48.764157 48.764157 0 0 0-48.764157-51.202365z" fill="" p-id="4193"></path><path d="M861.037424 569.145009a83.386709 83.386709 0 0 1 23.894437 0 8.777548 8.777548 0 0 1 6.33934 11.215756 23.406795 23.406795 0 0 1-6.33934 7.802265l-43.4001 43.4001 15.116889 48.764157a18.042738 18.042738 0 0 1 0 3.901133l53.152931 17.067455 48.764157-48.764157a8.777548 8.777548 0 0 1 12.678681 0c2.925849 2.925849 0 7.314624 2.438208 11.215756a101.917089 101.917089 0 0 1-8.777548 42.424817 97.528314 97.528314 0 0 1-58.029347 53.152931 97.528314 97.528314 0 0 1-22.431513 4.876416 143.366622 143.366622 0 0 1-18.042738 0 109.231712 109.231712 0 0 1-20.968587-3.901133 34.622552 34.622552 0 0 0-6.339341 0l-59.979913 67.782179-88.263125 97.528314a48.764157 48.764157 0 0 1-27.795569 16.579814c-8.777548 0 7.314624-37.060759 0-39.986609a48.764157 48.764157 0 0 1-30.233778-25.357362c-4.388774-8.289907-31.696702 19.993304-30.233777 10.240473a48.764157 48.764157 0 0 1 16.092172-31.209061l162.384643-153.119453a99.966522 99.966522 0 0 1 0-64.368688 97.528314 97.528314 0 0 1 80.948501-68.757461z m-217.975783 307.701832a43.4001 43.4001 0 0 0-6.33934 4.876416 16.579813 16.579813 0 0 0-3.901133 8.289906 18.53038 18.53038 0 0 0 0 10.240473 53.152931 53.152931 0 0 0 2.92585 4.876416s3.413491 2.925849 4.876415 3.901133a14.141606 14.141606 0 0 0 6.339341 0 17.555097 17.555097 0 0 0 6.826982 0 15.60453 15.60453 0 0 0 5.364057-2.92585c2.925849 0 3.901133-4.388774 5.851699-6.826982a20.480946 20.480946 0 0 0 0-13.653964l-3.901133-5.364057-5.364057-3.413491a44.863025 44.863025 0 0 0-6.826982 0h-5.851699z" fill="" p-id="4194"></path><path d="M632.821168 1023.139313a83.386709 83.386709 0 0 1-23.894437 0 8.777548 8.777548 0 0 1-6.33934-11.215757 23.406795 23.406795 0 0 1 6.33934-7.802265l43.4001-43.4001-15.116889-48.764157a18.042738 18.042738 0 0 1 0-3.901132l-53.152931-18.53038-48.764157 48.764157a8.777548 8.777548 0 0 1-12.678681 0c-2.925849-2.925849 0-7.314624-2.438208-11.215756a101.917089 101.917089 0 0 1 8.777548-42.424817 97.528314 97.528314 0 0 1 59.004631-56.566422 97.528314 97.528314 0 0 1 22.431512-4.876416 143.366622 143.366622 0 0 1 18.042738 0 109.231712 109.231712 0 0 1 20.968588 3.901133 34.622552 34.622552 0 0 0 6.33934 0l62.418121-67.294537 88.263125-97.528315c7.314624-8.289907-5.851699 20.480946 4.876416 18.042738a48.764157 48.764157 0 0 1 26.332644 0 48.764157 48.764157 0 0 1 31.209061 48.764158c0 11.703398 15.60453-11.703398 6.826982-3.413491l-162.384643 153.119453a99.966522 99.966522 0 0 1 0 64.368688 97.528314 97.528314 0 0 1-80.46086 79.973218z m217.975783-307.214191a43.4001 43.4001 0 0 0 6.33934-4.876415 16.579813 16.579813 0 0 0 3.901133-8.289907 18.53038 18.53038 0 0 0 0-10.240473 53.152931 53.152931 0 0 0-2.92585-4.876416s-3.413491-2.925849-4.876415-3.901132a14.141606 14.141606 0 0 0-6.339341 0 17.555097 17.555097 0 0 0-6.826982 0 15.60453 15.60453 0 0 0-5.364057 2.925849c-2.925849 0-3.901133 4.388774-5.851699 6.826982a20.480946 20.480946 0 0 0 0 13.653964l3.901133 5.364057 5.851699 3.901133a44.863025 44.863025 0 0 0 6.826982 0h5.851698z" fill="" p-id="4195"></path></svg>