<?xml version="1.0" standalone="no"?><!DOCTYPE svg PUBLIC "-//W3C//DTD SVG 1.1//EN" "http://www.w3.org/Graphics/SVG/1.1/DTD/svg11.dtd"><svg t="1707197871699" class="icon" viewBox="0 0 1024 1024" version="1.1" xmlns="http://www.w3.org/2000/svg" p-id="4282" xmlns:xlink="http://www.w3.org/1999/xlink" width="200" height="200"><path d="M956.159671 901.1197a36.571409 36.571409 0 0 1-34.742839-25.051415l-159.451343-476.891173v-1.462856l-116.297081-347.428386A73.142818 73.142818 0 0 0 575.999874 0.000183h-93.257093a73.142818 73.142818 0 0 0-69.30282 49.919973L137.325824 876.068285a36.571409 36.571409 0 0 1-34.742839 25.051415H61.44015A61.25711 61.25711 0 0 0 0.000183 962.559667 61.25711 61.25711 0 0 0 61.44015 1023.999634h901.119517A61.25711 61.25711 0 0 0 1023.999634 962.559667a61.25711 61.25711 0 0 0-61.439967-61.439967zM500.297058 91.428705h61.988538a19.748561 19.748561 0 0 1 18.285704 13.531422A19.931418 19.931418 0 0 1 566.857022 130.925827l-69.668534 18.285704A18.285704 18.285704 0 0 1 475.4285 126.171544l7.131424-21.942846a18.285704 18.285704 0 0 1 17.737134-12.799993z m-85.759954 253.07415l198.765607-53.2114A36.571409 36.571409 0 0 1 658.285544 314.880014l21.759989 64.914251a36.571409 36.571409 0 0 1-25.234272 46.994261L407.588536 493.714204a36.571409 36.571409 0 0 1-44.251405-46.811403l25.9657-77.714244a36.571409 36.571409 0 0 1 25.234273-24.685702z m-123.062792 370.285516l425.14263-114.102796a36.571409 36.571409 0 0 1 44.251405 23.771416l33.097125 99.474233a36.571409 36.571409 0 0 1-25.051415 46.811403l-481.645457 129.097074a34.01141 34.01141 0 0 1-9.508566 1.279999h-14.811421a36.571409 36.571409 0 0 1-34.742838-48.091403l38.034265-114.46851a36.571409 36.571409 0 0 1 25.234272-23.771416z"  p-id="4283"></path></svg>