<?xml version="1.0" standalone="no"?><!DOCTYPE svg PUBLIC "-//W3C//DTD SVG 1.1//EN" "http://www.w3.org/Graphics/SVG/1.1/DTD/svg11.dtd"><svg t="1708393749442" class="icon" viewBox="0 0 1024 1024" version="1.1" xmlns="http://www.w3.org/2000/svg" p-id="6212" xmlns:xlink="http://www.w3.org/1999/xlink" width="200" height="200"><path d="M621.36 188.56h-448.8c-26.48 0-48-21.52-48-48V48c0-26.48 21.52-48 48-48h448.8c26.48 0 48 21.52 48 48v92.56c0 26.56-21.44 48-48 48zM653.12 662.16c10.32-6 21.28-11.44 33.52-14.56 51.84-13.2 106.88 13.2 129.52 61.68 5.2 11.12 7.68 22.56 9.6 33.76 4.56 26.8 46.24 26.64 39.76-10.8-3.52-20.4-10.64-41.04-23.92-60.56-34.8-51.36-97.92-77.84-158.64-65.2a154.56 154.56 0 0 0-48.16 18.96c-25.92 15.6-18.64 58.16 18.32 36.72zM933.04 1013.6l-73.84-70.32c-15.04-14.4-15.68-38.24-1.28-53.28s38.24-15.68 53.28-1.28l73.84 70.32c15.04 14.4 15.68 38.24 1.28 53.28a37.744 37.744 0 0 1-53.28 1.28z" p-id="6213"></path><path d="M717.52 478.4C570.4 478.4 451.2 597.68 451.2 744.72c0 147.12 119.28 266.32 266.32 266.32 147.12 0 266.32-119.28 266.32-266.32S864.64 478.4 717.52 478.4z m0 449.68c-101.28 0-183.36-82.08-183.36-183.36 0-101.28 82.08-183.36 183.36-183.36 101.28 0 183.36 82.08 183.36 183.36 0 101.28-82.08 183.36-183.36 183.36z" p-id="6214"></path><path d="M714.32 416.64c18.16 0 35.92 1.52 53.28 4.32C745.92 326.72 661.6 256.4 560.8 256.4H239.68C122.4 256.4 27.28 351.52 27.28 468.8v449.12c0 58.56 47.52 106.08 106.08 106.08h398.32c-89.44-59.28-148.4-160.8-148.4-276.16-0.08-182.96 148.16-331.2 331.04-331.2zM359.2 503.44h-72v72H203.52v-72h-72V419.76h72v-72H287.2v72h72v83.68z" p-id="6215"></path></svg>