<?xml version="1.0" standalone="no"?><!DOCTYPE svg PUBLIC "-//W3C//DTD SVG 1.1//EN" "http://www.w3.org/Graphics/SVG/1.1/DTD/svg11.dtd"><svg t="1691979681363" class="icon" viewBox="0 0 1024 1024" version="1.1" xmlns="http://www.w3.org/2000/svg" p-id="5178" xmlns:xlink="http://www.w3.org/1999/xlink" width="200" height="200"><path d="M997.3 102.2L762.4 37.1l-9.4-1.3-476.7 103.6-235.6-64c-2.2-0.5-4.5-0.7-6.8-0.7-7.7 0-15.3 2.7-21.3 7.5-8 6.4-12.5 16-12.5 26.2v636.3c0 15.9 11.3 29.7 26.8 33l242.7 65.4 8 1.2L610.7 772l4-5.7-0.6-4.7c-0.5-3.4-1-6.9-1-10.3 0-11.1 1.4-21.9 3.4-32.5l1.3-7.5-315.5 68.8v30.3h-50.8v-31.8L57.9 725.2V138l193.6 54v-19.2h50.8v19.7L731.6 99V76.6h50.8v25.8l183.8 52.1 0.2 552.2c7.3 20.7 10.8 40 10.8 58.9 0 4.6-0.2 9-0.8 13.6-0.5 5.3-1.8 10.6-3.5 17.7l-1.2 5.1 11.4 2.4c2.3 0.5 4.7 0.8 7.1 0.8 7.7 0 15.2-2.7 21.1-7.5 8-6.4 12.5-16 12.5-26.2V135.1c0.1-15.7-11.1-29.6-26.5-32.9z" p-id="5179"></path><path d="M795.1 615.9c-74.7 0-135.2 59.9-135.2 133.9 0 5.5 0.7 11 1.8 16.4 1.3 6.3 3 12.5 5 18.6 2.3 6.9 4.9 13.7 7.8 20.3 3.1 7.3 6.5 14.4 10 21.5 3.7 7.5 7.7 14.9 11.7 22.2 4.2 7.5 8.5 15 12.9 22.4 4.4 7.4 9 14.7 13.6 22 4.5 7.1 9.1 14.2 13.8 21.2 4.4 6.6 8.9 13.2 13.4 19.8 4.1 6 8.3 12 12.6 17.9 3.7 5.2 7.4 10.4 11.2 15.5l9.3 12.6c2.3 3.1 5.3 6.2 9.1 7.4 2.4 0.8 5.1 0.5 7.3-0.6 3.3-1.7 5.5-3.9 7.7-6.9 1.5-2 2.9-3.9 4.4-5.9 3.5-4.7 6.9-9.4 10.3-14.1l12-16.8c4.4-6.3 8.8-12.6 13.1-18.9 4.6-6.8 9.2-13.7 13.6-20.5 4.7-7.2 9.2-14.4 13.7-21.7 4.5-7.4 9-14.8 13.3-22.3 4.3-7.4 8.4-14.8 12.4-22.3 3.8-7.2 7.5-14.5 10.9-21.9 3.2-6.9 6.2-13.9 9-21 2.5-6.4 4.7-12.9 6.5-19.5 1.6-5.8 2.8-11.6 3.5-17.6 0.3-2.6 0.5-5.3 0.5-8 0-73.8-60.5-133.7-135.2-133.7z m-1.4 190.9c-31.8 0-57.5-25.5-57.5-57s25.8-57 57.5-57c31.8 0 57.5 25.5 57.5 57 0.1 31.5-25.7 57-57.5 57zM779.6 419.3c58 0 105.2-47.2 105.2-105.2s-47.2-105.2-105.2-105.2-105.2 47.2-105.2 105.2c0 25 9.1 47.7 23.7 65.7l-133.4 113c-17.5-18.4-42.1-30-69.5-30-36.4 0-67.8 20.6-84.2 50.6l-95.2-71.1c8.4-13.7 13.5-29.6 13.5-46.8 0-49.5-40.3-89.9-89.9-89.9s-89.9 40.3-89.9 89.9c0 49.6 40.3 89.9 89.9 89.9 13.6 0 26.4-3.3 37.9-8.7L400 569.2c5.1 48.3 45.6 86.1 95.2 86.1 53.1 0 96.3-43.1 96.3-96.2 0-7-0.8-13.8-2.3-20.4l150.2-127.5c12.4 5.2 25.9 8.1 40.2 8.1z m-540.1 15.3c-21.6 0-39.2-17.5-39.2-39.1s17.5-39.1 39.2-39.1c21.6 0 39.1 17.5 39.1 39.1s-17.6 39.1-39.1 39.1z m255.7 169.9c-25.1 0-45.5-20.4-45.5-45.5s20.4-45.5 45.5-45.5 45.5 20.4 45.5 45.5-20.4 45.5-45.5 45.5z m284.4-344.9c30 0 54.5 24.4 54.5 54.4s-24.4 54.4-54.5 54.4-54.5-24.4-54.5-54.4 24.4-54.4 54.5-54.4z" p-id="5180"></path><path d="M251.5 172.8v93.4c18.3 1.7 35.4 7.1 50.8 15.6V172.7h-50.8zM302.2 810.4V546.3l-32-24.1c-6.2 1.6-12.5 1.7-18.8 2.3v285.9h50.8zM731.6 471.1V577c16-5.8 33-9.3 50.8-10.5V459.6c-0.9 0-1.8 0.3-2.7 0.3-10.4 0-20.7-1.1-30.9-3.3l-17.2 14.5zM731.6 76.6V177c15.1-5.3 31.1-8.8 48-8.8 0.9 0 1.8 0.3 2.7 0.3V76.6h-50.7z" fill="#040000" p-id="5181"></path></svg>