<?xml version="1.0" standalone="no"?><!DOCTYPE svg PUBLIC "-//W3C//DTD SVG 1.1//EN" "http://www.w3.org/Graphics/SVG/1.1/DTD/svg11.dtd"><svg t="1735104666390" class="icon" viewBox="0 0 1207 1024" version="1.1" xmlns="http://www.w3.org/2000/svg" p-id="6060" xmlns:xlink="http://www.w3.org/1999/xlink" width="235.7421875" height="200"><path d="M1017.802469 921.069734a107.858918 107.858918 0 0 1-7.142974-40.072088c0-14.285949 4.142925-17.357429 14.928817-25.143271a205.289094 205.289094 0 0 0 28.571899-25.000412c36.64346-37.929196 58.786682-63.643905 71.786896-92.858671s16.714561-62.929607 16.714561-116.644778c0-61.143864-38.072055-121.859149-96.07301-167.217038a355.720142 355.720142 0 0 0-214.289242-75.429813c-83.715664 0-151.645354 25.714709-202.003326 65.786797a275.790254 275.790254 0 0 0-89.144324 125.502066 257.14709 257.14709 0 0 0-7.142975 146.002404 226.575158 226.575158 0 0 0 86.715713 129.073553 375.93476 375.93476 0 0 0 139.645156 63.858194 339.362729 339.362729 0 0 0 147.788147 1.000017c62.07245-13.714511 67.92969-8.071561 79.715598 3.357198a74.858375 74.858375 0 0 0 34.357709 19.857469c-1.285735-4.500074-2.571471-8.35728-3.785777-12.071627zM212.932077 696.637468a130.216429 130.216429 0 0 0-8.285851 30.714791A186.360211 186.360211 0 0 0 242.861141 708.637666c24.071825-14.285949 47.643641-28.071891 83.287085-20.928916 28.571899 5.64295 49.286526 9.571586 71.429748 12.071627a650.582138 650.582138 0 0 0 72.715482 3.642917A175.502889 175.502889 0 0 1 460.436151 635.850753a315.219475 315.219475 0 0 1 16.071693-90.715779C499.508223 477.205284 528.58013 450.13341 571.437978 410.275611l2.500042-2.214322c5.285801-4.928653 8.42871-7.785842 11.714478-10.500173 3.214339-2.571471 7.142975-5.071512 12.785925-9.357297a357.934464 357.934464 0 0 1 96.573018-48.429368 369.077504 369.077504 0 0 1 108.716076-16.857421 296.647741 296.647741 0 0 0-24.214685-65.00107c-37.929196-74.358367-105.858886-128.573545-185.217334-159.145477a438.792938 438.792938 0 0 0-252.718446-19.500321 374.434735 374.434735 0 0 0-88.358598 31.857667c-59.929558 30.857651-105.287448 70.64402-135.71652 115.573332A270.861602 270.861602 0 0 0 68.643987 364.417713 276.718841 276.718841 0 0 0 100.001646 507.277208a370.148951 370.148951 0 0 0 120.930562 133.573627l1.857174 1.285736v2.285752a134.145065 134.145065 0 0 1-9.857305 52.215145zM48.07222 551.206503C18.714594 497.634192 0 435.847461 0 377.703646c0-47.072203 14.857387-98.215903 38.429204-144.930957A382.220578 382.220578 0 0 1 135.71652 108.413499 477.65072 477.65072 0 0 1 421.435509 0.126002a494.72243 494.72243 0 0 1 295.862013 90.001482 364.291711 364.291711 0 0 1 93.28725 89.715762 412.64965 412.64965 0 0 1 55.286625 114.287596c8.57157 26.571866 11.2859 26.857585 27.286163 28.571899 5.857239 0.571438 13.285933 1.428595 22.928949 3.285768a398.149411 398.149411 0 0 1 96.14444 32.357676 328.576838 328.576838 0 0 1 79.28702 53.000872 495.508157 495.508157 0 0 1 44.643592 45.35789 275.575965 275.575965 0 0 1 35.714873 53.57231c25.786139 51.215129 37.929196 98.501622 35.714874 145.430966s-17.571718 93.35868-47.429352 142.859494a376.863347 376.863347 0 0 1-43.857865 55.429484 381.72057 381.72057 0 0 1-50.000823 45.42932 436.792905 436.792905 0 0 0 16.643131 54.286608c9.928735 27.071874 14.857387 40.643526 1.000016 67.78683l-1.357165 2.500041h-2.71433c-23.286098-2.000033-37.786336-11.35733-53.7866-21.428924l-5.357231-3.428628c-7.785842-4.928653-15.714544-9.643016-23.857536-14.28595s-15.571685-8.42871-24.357543-13.071643c-21.428924-11.2859-22.143222-11.143041-40.286378-6.142959-4.000066 1.142876-8.714429 2.428611-15.357396 4.071496a279.86175 279.86175 0 0 1-87.43001 9.000148H807.156145c-65.215359 0-139.788015-28.571899-200.86045-70.50116-59.28669-40.714956-106.073175-94.287266-119.716256-146.859561a296.576311 296.576311 0 0 1-79.858458 5.71438 532.937345 532.937345 0 0 1-81.572771-11.643049c-41.500683-8.857289-74.572656 12.785925-106.216034 33.429122-20.500337 13.428792-40.500667 26.500436-61.929591 31.214799-18.786024 4.071496-27.714742-2.357182-30.500503-15.071676-4.142925-19.071743 8.35728-53.286591 20.071759-85.715697 5.928669-16.214553 11.643049-31.929097 14.785958-44.572162-42.857848-24.571833-83.572804-70.072582-113.14472-123.930612z m471.436332-216.717854a67.358252 67.358252 0 0 1-16.071693-45.1436c0-10.928751 8.000132-22.5718 19.071743-31.429089A65.215359 65.215359 0 0 1 560.437797 242.987143c29.571915 0 48.00079 14.285949 56.072352 31.929097a54.500897 54.500897 0 0 1 4.928653 22.50037 57.143798 57.143798 0 0 1-4.928653 22.85752 58.286674 58.286674 0 0 1-55.858062 33.929129 55.429484 55.429484 0 0 1-40.857816-19.71461z m-271.075891 0a67.358252 67.358252 0 0 1-16.071693-45.1436c0-10.928751 8.000132-22.5718 19.071743-31.429089A65.215359 65.215359 0 0 1 289.361906 242.987143c29.214767 0 47.429352 14.285949 55.358055 31.857667a54.643757 54.643757 0 0 1 5.285801 22.500371 58.572393 58.572393 0 0 1-4.857223 22.857519 57.143798 57.143798 0 0 1-55.143765 34.000559 55.572343 55.572343 0 0 1-41.286394-19.71461z" p-id="6061"></path><path d="M734.512092 692.994551a11.000181 11.000181 0 0 1 8.857288 12.857354 9.571586 9.571586 0 0 1-0.500008 1.428595 14.285949 14.285949 0 0 1-16.785991 7.142975l-123.502033-36.71489a11.143041 11.143041 0 0 1-2.000033-21.428924l400.506594-178.574368c10.000165-4.642934 21.428924 2.85719 19.428891 12.071627l-61.643872 279.93318a13.643082 13.643082 0 0 1-16.92885 9.285867h-0.500008l-127.144951-38.572064a11.000181 11.000181 0 0 1-8.42871-13.071644c0-0.428578 0-0.857157 0.357149-1.214305a14.285949 14.285949 0 0 1 16.78599-7.142975l112.716142 33.571981 53.57231-243.646868-348.577167 156.073998z" p-id="6062"></path><path d="M786.084369 744.495399v54.715186a13.571652 13.571652 0 0 1-26.786155 0v-54.715186c0-21.428924 5.357231-38.572064 16.071693-50.000823l215.003539-202.146185a14.285949 14.285949 0 0 1 18.714594-0.571438 10.071594 10.071594 0 0 1 2.571471 14.285949 8.57157 8.57157 0 0 1-1.857173 2.071463l-214.289242 201.003309a57.143798 57.143798 0 0 0-9.357297 35.714874z" p-id="6063"></path></svg>