<?xml version="1.0" standalone="no"?><!DOCTYPE svg PUBLIC "-//W3C//DTD SVG 1.1//EN" "http://www.w3.org/Graphics/SVG/1.1/DTD/svg11.dtd"><svg t="1678780572417" class="icon" viewBox="0 0 1024 1024" version="1.1" xmlns="http://www.w3.org/2000/svg" p-id="2258" xmlns:xlink="http://www.w3.org/1999/xlink" width="200" height="200"><path d="M820.775385 15.753846A77.193846 77.193846 0 0 1 897.969231 92.947692v208.580923l-113.742769-0.015753 0.094523 4.962461a157.538462 157.538462 0 0 0 47.167015 106.9056 220.553846 220.553846 0 0 1 66.481231 157.538462V935.778462a88.221538 88.221538 0 0 1-88.221539 88.221538H230.006154A88.221538 88.221538 0 0 1 141.784615 935.778462V570.919385a220.553846 220.553846 0 0 1 66.481231-157.538462 157.538462 157.538462 0 0 0 47.261539-111.852308H141.784615V92.947692A77.193846 77.193846 0 0 1 218.978462 15.753846h601.796923z m-99.564308 285.774769l-382.550646-0.015753-20.117662 0.015753a220.553846 220.553846 0 0 1-66.166154 157.538462 157.538462 157.538462 0 0 0-47.576615 111.852308V935.778462a25.206154 25.206154 0 0 0 25.206154 25.206153h579.741538a25.206154 25.206154 0 0 0 25.206154-25.206153v-100.84037L393.846154 834.953846V545.713231h439.028184A157.538462 157.538462 0 0 0 787.692308 458.752a220.553846 220.553846 0 0 1-66.481231-157.223385zM834.953846 608.697108l-378.092308 0.015754V771.938462l378.092308-0.015754v-163.209846zM820.775385 78.769231H218.978462a14.178462 14.178462 0 0 0-14.178462 14.178461v145.565539l50.727385-0.015754v-0.299323h528.699077v0.299323l50.727384 0.015754V92.947692a14.178462 14.178462 0 0 0-14.178461-14.178461z"  p-id="2259"></path></svg>