<?xml version="1.0" standalone="no"?><!DOCTYPE svg PUBLIC "-//W3C//DTD SVG 1.1//EN" "http://www.w3.org/Graphics/SVG/1.1/DTD/svg11.dtd"><svg t="1698817182327" class="icon" viewBox="0 0 1046 1024" version="1.1" xmlns="http://www.w3.org/2000/svg" p-id="4583" xmlns:xlink="http://www.w3.org/1999/xlink" width="204.296875" height="200"><path d="M143.84 55.904a82.016 82.016 0 0 0-82.048 82.048v738.304h-0.576a41.024 41.024 0 0 0 0 82.048H636.608a41.024 41.024 0 0 0 0-82.048h-0.608 0.032v-164.064h123.04v102.528c0 78.816 64.768 143.552 143.552 143.552 5.376-0.096 10.432-1.216 15.104-3.136l-0.256 0.096c71.616-7.84 128.736-66.944 128.736-140.512V466.08c0-11.328-4.608-21.568-12.032-28.992l-164.064-164.064A40.224 40.224 0 0 0 864 268l-0.16-0.096-123.04-82.048a40.416 40.416 0 0 0-23.136-7.2h-0.064a41.024 41.024 0 0 0-22.432 75.36l0.16 0.096 104.768 69.856v101.088a82.016 82.016 0 0 0 82.048 82.048h82.048v307.616c0 34.496-27.04 61.536-61.536 61.536s-61.536-27.04-61.536-61.536v-102.528a82.656 82.656 0 0 0-82.048-82.048h-123.04V137.952a82.016 82.016 0 0 0-82.048-82.048H143.808z m0 82.048h410.176v246.112H143.84V137.952z" p-id="4584"></path></svg>