<?xml version="1.0" standalone="no"?><!DOCTYPE svg PUBLIC "-//W3C//DTD SVG 1.1//EN" "http://www.w3.org/Graphics/SVG/1.1/DTD/svg11.dtd"><svg t="1683682816572" class="icon" viewBox="0 0 1024 1024" version="1.1" xmlns="http://www.w3.org/2000/svg" p-id="2200" xmlns:xlink="http://www.w3.org/1999/xlink" width="200" height="200"><path d="M373 358.2h-71l27.7-88c3-9.3 4.8-17 5.5-23.3h1.3c1.5 7 3.3 14.3 5.5 22.3l31 89z" p-id="2201"></path><path d="M762 112H262c-82.5 0-150 67.5-150 150v500c0 82.5 67.5 150 150 150h500c82.5 0 150-67.5 150-150V262c0-82.5-67.5-150-150-150z m-459 88h66.7L462 459h-61.2L383 402.8h-93.2L272 459h-60l91-259z m63.5 613H240V554h120.7c57 1.8 87.5 22.5 91.3 62.2 0 30.5-16.8 50.8-50.3 61C438 685 458 705 463 737c0 50.7-32.5 76-96.5 76z m450.3-34L781 814.7l-89.2-89.3-89.2 89.3-35.8-35.7 89.2-89.3-89.2-89.3 35.8-35.7 89.2 89.3 89.2-89.3 35.8 35.7-89.2 89.3 89.2 89.3zM625 462.5L512 352.8l36.5-39.8 76.5 76.5L812.8 200l39.8 36.5-227.6 226z" p-id="2202"></path><path d="M390 626.7c-0.8 21-13.5 32-38.5 32.7h-69.3v-62h69.3c25 0.9 37.8 10.6 38.5 29.3zM400.8 737c-1 23.2-15.7 35-44.8 35h-73.7v-69h75.3c26.9 0.7 41.4 12 43.2 34z" p-id="2203"></path></svg>