<?xml version="1.0" standalone="no"?><!DOCTYPE svg PUBLIC "-//W3C//DTD SVG 1.1//EN" "http://www.w3.org/Graphics/SVG/1.1/DTD/svg11.dtd"><svg t="1697788015176" class="icon" viewBox="0 0 1058 1024" version="1.1" xmlns="http://www.w3.org/2000/svg" p-id="4070" xmlns:xlink="http://www.w3.org/1999/xlink" width="206.640625" height="200"><path d="M262.338072 175.094638h418.000494c29.351124 0 52.629602-23.278478 52.629602-52.629602s-23.278478-52.629602-52.629602-52.629602H556.861422c-8.096862-40.484309-43.520633-69.835434-85.017049-69.835434-41.496417 0-76.920188 29.351124-85.01705 69.835434H262.338072c-29.351124 0-52.629602 23.278478-52.629603 52.629602s23.278478 52.629602 52.629603 52.629602z"  p-id="4071"></path><path d="M689.447535 969.599209c-80.968619 0-157.888807-31.37534-214.566839-89.06548-20.242155-20.242155-37.447986-43.520633-50.605387-67.811218h-65.787003c-12.145293 0-23.278478-5.060539-32.387447-13.157401-8.096862-8.096862-13.157401-20.242155-13.157401-32.387448 0-12.145293 5.060539-23.278478 13.157401-32.387447 8.096862-8.096862 20.242155-13.157401 32.387447-13.157401H391.887862c-5.060539-29.351124-6.072646-60.726464-3.036324-91.089696h-31.375339c-12.145293 0-23.278478-5.060539-32.387448-13.1574-8.096862-8.096862-13.157401-20.242155-13.1574-32.387448 0-12.145293 5.060539-23.278478 13.1574-32.387447 8.096862-8.096862 20.242155-13.157401 32.387448-13.157401H442.493248c16.193724-9.10897 33.399555-14.169508 53.64171-14.169508 19.230047 0 36.435878 5.060539 52.629602 14.169508h23.278478c-21.254262-25.302693-29.351124-58.702249-21.254262-91.089696h-192.30047c-12.145293 0-23.278478-5.060539-32.387447-13.1574-8.096862-8.096862-13.157401-20.242155-13.157401-32.387448 0-12.145293 5.060539-23.278478 13.157401-32.387447 8.096862-8.096862 20.242155-13.157401 32.387447-13.157401H725.883414c11.133185 0 22.26637 4.048431 30.363232 12.145293 55.665925 12.145293 107.28342 40.484309 148.779837 81.980726 13.157401 13.157401 25.302693 27.326909 35.423771 42.508525V203.433655c0-24.290586-10.121077-47.569064-27.326909-64.774895-17.205831-17.205831-40.484309-26.314801-64.774895-26.314802h-91.089696v22.266371c0 18.217939-7.084754 35.423771-20.242155 48.581171-13.157401 13.157401-30.363232 20.242155-48.581171 20.242155H252.216994c-37.447986 0-68.823326-30.363232-68.823326-67.811219v-22.26637h-91.089696c-24.290586 0-47.569064 9.10897-64.774895 26.314801-17.205831 17.205831-27.326909 40.484309-27.326908 64.774895v727.705461c0 24.290586 10.121077 47.569064 26.314801 64.774895 17.205831 17.205831 40.484309 26.314801 64.774895 26.314801h716.572275l-58.702248-58.702248c-19.230047 3.036323-39.472202 5.060539-59.714357 5.060538zM253.229102 798.553002c-8.096862 8.096862-20.242155 13.157401-32.387447 13.157401-12.145293 0-23.278478-5.060539-32.387448-13.157401-8.096862-8.096862-13.157401-20.242155-13.1574-32.387447 0-12.145293 5.060539-23.278478 13.1574-32.387448 8.096862-8.096862 20.242155-13.157401 32.387448-13.1574 12.145293 0 23.278478 5.060539 32.387447 13.1574 8.096862 8.096862 13.157401 20.242155 13.157401 32.387448 0 13.157401-5.060539 24.290586-13.157401 32.387447z m-21.254262-170.034099c-20.242155 5.060539-41.496417-3.036323-51.617495-21.254263-8.096862-14.169508-8.096862-31.37534 0-45.544848s23.278478-23.278478 39.472202-23.278477c12.145293 0 23.278478 5.060539 32.387447 13.1574 8.096862 8.096862 13.157401 20.242155 13.157401 32.387448 1.012108 21.254262-13.157401 39.472202-33.399555 44.53274z m0-182.179392c-20.242155 5.060539-41.496417-3.036323-51.617495-21.254263-8.096862-14.169508-8.096862-31.37534 0-45.544848s23.278478-22.26637 39.472202-22.26637c25.302693 0 45.544848 20.242155 45.544848 45.544848 1.012108 20.242155-13.157401 38.460094-33.399555 43.520633z" p-id="4072"></path><path d="M496.134958 525.283914c-19.230047 0-37.447986 5.060539-53.64171 14.169508h106.271312c-16.193724-9.10897-33.399555-14.169508-52.629602-14.169508z"  p-id="4073"></path><path d="M470.832265 626.494687c3.036323-20.242155 28.339017-27.326909 42.508525-13.1574l119.428712 119.428713c17.205831 17.205831 44.53274 17.205831 61.738572 0l61.738572-61.738572c17.205831-17.205831 17.205831-44.53274 0-61.738572L635.805826 489.860143c-14.169508-14.169508-8.096862-39.472202 12.145292-42.508525 70.847541-13.157401 145.743514 7.084754 200.397332 61.738572 60.726464 59.714356 78.944403 145.743514 55.665925 221.651594-4.048431 12.145293-1.012108 26.314801 8.096862 35.423771l121.452928 121.452928c17.205831 17.205831 17.205831 44.53274 0 61.738572l-61.738572 61.738571c-17.205831 17.205831-44.53274 17.205831-61.738572 0l-121.452928-123.477143c-9.10897-9.10897-22.26637-12.145293-35.42377-8.096862-75.90808 22.26637-160.92513 4.048431-220.639486-56.678033-53.64171-52.629602-73.883865-127.525574-61.738572-196.348901z m478.726958 327.922906c19.230047 0 33.399555-15.181616 33.399555-33.399555 0-19.230047-15.181616-33.399555-33.399555-33.399555-19.230047 0-33.399555 15.181616-33.399555 33.399555 0 18.217939 15.181616 33.399555 33.399555 33.399555z" p-id="4074"></path></svg>